<?xml version="1.0" encoding="utf-8"?>
<!-- Generator: Adobe Illustrator 21.0.0, SVG Export Plug-In . SVG Version: 6.00 Build 0)  -->
<svg version="1.1" id="Background__x2B__Layer_1__x2B__Shape_1__x2B__Shape_2__x2B__Shape_3__x2B__Artemis_Gause_CV_xA0_Image_1_"
	 xmlns="http://www.w3.org/2000/svg" xmlns:xlink="http://www.w3.org/1999/xlink" x="0px" y="0px" viewBox="0 0 72.6 97"
	 style="enable-background:new 0 0 72.6 97;" xml:space="preserve">
<style type="text/css">
	.st0{fill:#B0BCBC;}
	.st1{fill:#F88B74;}
	.st2{fill:#FAA694;}
	.st3{fill:#7FD6C9;}
	.st4{opacity:0.67;fill:#606060;enable-background:new    ;}
	.st5{fill:#A3314A;}
	.st6{fill:#168297;}
	.st7{fill:#8C2A48;}
	.st8{fill:#D5DBDB;}
	.st9{font-family:'Parisish';}
	.st10{font-size:12px;}
	.st11{fill:#CCD3D3;}
</style>
<rect y="0" class="st0" width="72.6" height="97"/>
<polygon class="st1" points="7.5,0 0,47.6 72.6,33.9 "/>
<polyline class="st2" points="66.3,97 0,69.1 72.6,72.4 "/>
<circle class="st3" cx="44.2" cy="52.9" r="18.4"/>
<polyline class="st4" points="22.5,0.1 60,0.1 60,98.1 22.5,98.1 "/>
<path class="st5" d="M59.5,46.1"/>
<polygon class="st6" points="22.5,7.8 22.5,43.5 60,36.4 60,27.3 "/>
<polyline class="st6" points="22.5,70.1 22.5,78.5 60,94.3 60,71.6 "/>
<path class="st7" d="M59.9,43.9c-3.2-5.5-9.1-9.2-15.9-9.2c-10.1,0-18.3,8.2-18.3,18.3S33.9,71.2,44,71.2c6.8,0,12.7-3.7,15.9-9.2
	V43.9z"/>
<g>
	<text transform="matrix(1 0 0 1 33.884 56.7226)" class="st8 st9 st10">CV</text>
</g>
<g>
	<text transform="matrix(1 0 0 1 26.3639 31.2397)" class="st8 st9 st10">Artemis</text>
</g>
<g>
	<g>
		<text transform="matrix(1 0 0 1 29.1835 80.7552)" class="st11 st9 st10">Gause</text>
	</g>
</g>
</svg>
