<?xml version="1.0" encoding="utf-8"?>
<!-- Generator: Adobe Illustrator 21.0.0, SVG Export Plug-In . SVG Version: 6.00 Build 0)  -->
<svg version="1.1" id="Layer_1" xmlns="http://www.w3.org/2000/svg" xmlns:xlink="http://www.w3.org/1999/xlink" x="0px" y="0px"
	 viewBox="0 0 72.6 97" style="enable-background:new 0 0 72.6 97;" xml:space="preserve">
<style type="text/css">
	.st0{fill:#B0BCBC;}
	.st1{fill:#6CB7B3;}
	.st2{fill:#FA8893;}
	.st3{opacity:0.67;fill:#606060;enable-background:new    ;}
	.st4{fill:#A3314A;}
	.st5{fill:#F7667F;}
	.st6{fill:#22A09C;}
	.st7{fill:#0ED2D8;}
	.st8{fill:none;}
	.st9{fill:#1ABCC4;}
	.st10{font-family:'Parisish';}
	.st11{font-size:11.2268px;}
	.st12{opacity:0.93;fill:#09CECE;enable-background:new    ;}
	.st13{display:none;}
</style>
<g id="Background__x2B__Layer_1__x2B__Shape_1__x2B__Shape_2__x2B__Shape_3__x2B__Artemis_Gause_CV_xA0_Image_1_">
	<polyline class="st0" points="72.6,98 0,98 0,48.5 0,26.7 0,-1 72.6,-1 	"/>
	<ellipse class="st1" cx="43.5" cy="64.4" rx="23.7" ry="24.2"/>
	<polygon class="st2" points="72.6,27.6 0,71.1 0,0.2 	"/>
	<polyline class="st3" points="21.8,-0.9 62,-0.9 62,38.1 62,98 21.8,98 	"/>
	<path class="st4" d="M59.5,46.1"/>
	<polygon class="st5" points="72.4,3.3 0,64.9 0,21.5 	"/>
	<path class="st6" d="M30.2,14.8"/>
	<polygon class="st7" points="62,5.9 62,12.2 21.8,46.4 21.9,16 	"/>
	<path class="st6" d="M22.7,34.1"/>
	<path class="st8" d="M19.2,47"/>
	<path class="st8" d="M61.3,30.9"/>
	<ellipse class="st9" cx="41.5" cy="61.3" rx="18" ry="18.4"/>
	<g>
		<text transform="matrix(0.9798 0 0 1 33.4014 64.8109)" class="st10 st11">CV</text>
	</g>
	<polygon class="st12" points="62.1,23.7 62,34 21.8,58.1 21.8,8.4 	"/>
	<g>
		<text transform="matrix(0.9798 0 0 1 29.5239 38.5931)" class="st10 st11">Gause</text>
	</g>
	<text transform="matrix(0.9798 0 0 1 26.939 26.8563)" class="st10 st11">Artemis</text>
</g>
<g id="Layer_2" class="st13">
</g>
</svg>
